<svg xml:space="preserve" style="max-height: 500px" viewBox="65.4808 178.58399999999997 296.78959999999995 68.8824" y="0px" x="0px" xmlns:xlink="http://www.w3.org/1999/xlink" xmlns="http://www.w3.org/2000/svg" version="1.1" width="296.78959999999995" height="68.8824">
<style type="text/css">
	.st0{fill:#1B3D6D;}
	.st1{display:none;}
	.st2{display:inline;fill:none;stroke:#1B3D6D;stroke-width:0.25;stroke-miterlimit:10;}
</style>
<g id="Layer_3">
</g>
<g id="Layer_1">
	<g>
		<g>
			<path d="M182.88,231.86H153.5v-39.61h29.37v5.15h-23.9v11.6h21.68v5.2h-21.68v12.46h23.9V231.86z" class="st0"/>
			<path d="M183.25,232.24h-30.13v-40.37h30.13v5.9h-23.9v10.84h21.68v5.96h-21.68v11.71h23.9V232.24z M153.88,231.49&#10;&#9;&#9;&#9;&#9;h28.62v-4.45h-23.9v-13.22h21.68v-4.45H158.6v-12.35h23.9v-4.4h-28.62V231.49z" class="st0"/>
		</g>
		<g>
			<path d="M194.09,198.1h-5.53v-5.8h5.53V198.1z M194.15,231.86h-5.58V203.9h5.58V231.86z" class="st0"/>
			<path d="M194.52,232.24h-6.33v-28.72h6.33V232.24z M188.94,231.49h4.83v-27.21h-4.83V231.49z M194.47,198.48h-6.28&#10;&#9;&#9;&#9;&#9;v-6.55h6.28V198.48z M188.94,197.72h4.78v-5.05h-4.78V197.72z" class="st0"/>
		</g>
		<g>
			<path d="M225.25,226.61c0,3.94-1.16,7.14-3.47,9.59c-2.31,2.46-5.35,3.69-9.1,3.69c-5.46,0-9.45-2.33-11.98-6.99&#10;&#9;&#9;&#9;&#9;l4.88-2.33c1.66,2.78,4.03,4.17,7.1,4.17c2.09,0,3.79-0.7,5.09-2.11c1.3-1.44,1.95-3.45,1.95-6.02v-0.98&#10;&#9;&#9;&#9;&#9;c-2.35,2.31-4.84,3.47-7.48,3.47c-3.65,0-6.67-1.25-9.05-3.74c-2.42-2.53-3.63-5.58-3.63-9.16c0-3.61,1.19-6.68,3.58-9.21&#10;&#9;&#9;&#9;&#9;c2.38-2.53,5.42-3.79,9.1-3.79c2.67,0,5.17,0.92,7.48,2.76v-2.33h5.53V226.61z M219.67,215.98c0-2.17-0.69-3.99-2.06-5.47&#10;&#9;&#9;&#9;&#9;c-1.34-1.44-3.13-2.17-5.37-2.17c-1.92,0-3.56,0.76-4.93,2.28c-1.34,1.55-2.01,3.41-2.01,5.58c0,2.06,0.69,3.85,2.06,5.37&#10;&#9;&#9;&#9;&#9;c1.37,1.48,3,2.22,4.88,2.22c2.13,0,3.9-0.69,5.31-2.06C218.97,220.36,219.67,218.44,219.67,215.98z" class="st0"/>
			<path d="M212.68,240.26c-5.58,0-9.72-2.42-12.31-7.19l-0.19-0.35l5.54-2.65l0.18,0.29c1.6,2.68,3.82,3.99,6.78,3.99&#10;&#9;&#9;&#9;&#9;c1.98,0,3.6-0.67,4.82-1.99c1.23-1.36,1.85-3.3,1.85-5.76v-0.11c-2.23,1.98-4.61,2.98-7.1,2.98c-3.74,0-6.88-1.3-9.32-3.86&#10;&#9;&#9;&#9;&#9;c-2.48-2.59-3.74-5.76-3.74-9.42c0-3.7,1.24-6.88,3.68-9.47c2.45-2.6,5.6-3.91,9.38-3.91c2.51,0,4.9,0.8,7.1,2.38v-1.95h6.28&#10;&#9;&#9;&#9;&#9;v23.35c0,4.02-1.2,7.33-3.57,9.85C219.68,238.98,216.53,240.26,212.68,240.26z M201.23,233.06c2.46,4.28,6.31,6.45,11.45,6.45&#10;&#9;&#9;&#9;&#9;c3.63,0,6.6-1.2,8.83-3.57c2.23-2.37,3.37-5.51,3.37-9.33v-22.6h-4.78v2.73l-0.61-0.49c-2.23-1.78-4.67-2.68-7.24-2.68&#10;&#9;&#9;&#9;&#9;c-3.56,0-6.53,1.24-8.83,3.68c-2.31,2.44-3.47,5.46-3.47,8.95c0,3.46,1.19,6.45,3.53,8.9c2.3,2.4,5.25,3.62,8.78,3.62&#10;&#9;&#9;&#9;&#9;c2.52,0,4.95-1.13,7.21-3.36l0.64-0.63v1.87c0,2.65-0.69,4.76-2.05,6.27c-1.37,1.49-3.18,2.24-5.37,2.24&#10;&#9;&#9;&#9;&#9;c-3.09,0-5.52-1.37-7.24-4.06L201.23,233.06z M212.25,224.16c-1.98,0-3.71-0.79-5.15-2.34c-1.43-1.58-2.16-3.47-2.16-5.62&#10;&#9;&#9;&#9;&#9;c0-2.25,0.71-4.21,2.1-5.83c1.45-1.6,3.2-2.41,5.22-2.41c2.34,0,4.24,0.77,5.64,2.29c1.43,1.55,2.16,3.48,2.16,5.73&#10;&#9;&#9;&#9;&#9;c0,2.55-0.75,4.57-2.23,6.01C216.35,223.44,214.47,224.16,212.25,224.16z M212.25,208.72c-1.82,0-3.34,0.7-4.65,2.15&#10;&#9;&#9;&#9;&#9;c-1.26,1.47-1.91,3.26-1.91,5.33c0,1.95,0.66,3.67,1.96,5.11c1.31,1.41,2.81,2.1,4.6,2.1c2.02,0,3.72-0.66,5.05-1.95&#10;&#9;&#9;&#9;&#9;c1.33-1.29,2-3.14,2-5.47c0-2.06-0.66-3.81-1.96-5.22C216.08,209.41,214.37,208.72,212.25,208.72z" class="st0"/>
		</g>
		<g>
			<path d="M254.84,224.33c-3.22,5.31-7.32,7.97-12.3,7.97c-3.9,0-6.97-1.41-9.21-4.23c-2.13-2.71-3.2-6.21-3.2-10.51&#10;&#9;&#9;&#9;&#9;c0-4.52,1.26-8.09,3.79-10.73c2.31-2.46,5.26-3.69,8.83-3.69c3.4,0,6.23,1.19,8.51,3.58c2.38,2.49,3.58,5.74,3.58,9.75v2.55&#10;&#9;&#9;&#9;&#9;h-19.13c0.61,5.38,2.89,8.07,6.83,8.07c2.96,0,5.44-1.79,7.42-5.37L254.84,224.33z M248.93,213.71&#10;&#9;&#9;&#9;&#9;c-1.19-3.58-3.25-5.37-6.18-5.37c-3.18,0-5.38,1.79-6.61,5.37H248.93z" class="st0"/>
			<path d="M242.54,232.67c-4,0-7.2-1.47-9.51-4.37c-2.18-2.77-3.28-6.38-3.28-10.75c0-4.6,1.31-8.29,3.9-10.99&#10;&#9;&#9;&#9;&#9;c2.37-2.52,5.44-3.8,9.11-3.8c3.49,0,6.44,1.24,8.78,3.69c2.44,2.55,3.68,5.92,3.68,10.01v2.92h-19.08&#10;&#9;&#9;&#9;&#9;c0.66,4.93,2.76,7.32,6.4,7.32c2.8,0,5.19-1.74,7.1-5.17l0.18-0.32l5.55,2.96l-0.21,0.34&#10;&#9;&#9;&#9;&#9;C251.89,229.93,247.64,232.67,242.54,232.67z M242.76,203.52c-3.45,0-6.33,1.2-8.56,3.57c-2.45,2.55-3.69,6.08-3.69,10.47&#10;&#9;&#9;&#9;&#9;c0,4.19,1.05,7.65,3.12,10.28c2.15,2.71,5.15,4.08,8.92,4.08c4.71,0,8.67-2.51,11.77-7.45l-4.2-2.24&#10;&#9;&#9;&#9;&#9;c-2.02,3.48-4.57,5.24-7.57,5.24c-4.14,0-6.57-2.83-7.2-8.41l-0.05-0.42h19.18v-2.17c0-3.89-1.17-7.09-3.47-9.49&#10;&#9;&#9;&#9;&#9;C248.8,204.68,246.03,203.52,242.76,203.52z M249.46,214.09h-13.84l0.17-0.5c1.28-3.73,3.62-5.62,6.97-5.62&#10;&#9;&#9;&#9;&#9;c3.09,0,5.29,1.89,6.53,5.62L249.46,214.09z M236.68,213.33h11.72c-1.16-3.1-3.01-4.61-5.65-4.61&#10;&#9;&#9;&#9;&#9;C239.88,208.72,237.89,210.23,236.68,213.33z" class="st0"/>
		</g>
		<g>
			<path d="M285.3,231.86h-5.53v-15.99c0-2.64-0.49-4.53-1.46-5.69c-1.01-1.12-2.57-1.68-4.66-1.68&#10;&#9;&#9;&#9;&#9;c-3.4,0-6.2,1.66-8.4,4.99v18.37h-5.53v-28.13h5.53v2.98c2.75-2.28,5.67-3.41,8.78-3.41c7.51,0,11.27,4.19,11.27,12.57V231.86z" class="st0"/>
			<path d="M285.67,232.24h-6.28v-16.36c0-2.53-0.46-4.37-1.37-5.45c-0.93-1.02-2.4-1.55-4.37-1.55&#10;&#9;&#9;&#9;&#9;c-3.21,0-5.91,1.59-8.02,4.72v18.63h-6.28v-28.88h6.28v2.58c2.63-2,5.45-3.01,8.4-3.01c7.73,0,11.65,4.36,11.65,12.95V232.24z&#10;&#9;&#9;&#9;&#9; M280.15,231.49h4.78v-15.61c0-8.21-3.56-12.2-10.9-12.2c-3,0-5.88,1.12-8.54,3.33l-0.62,0.51v-3.41h-4.77v27.37h4.77v-18.11&#10;&#9;&#9;&#9;&#9;l0.06-0.09c2.27-3.42,5.2-5.15,8.71-5.15c2.2,0,3.86,0.61,4.94,1.8c1.04,1.23,1.56,3.23,1.56,5.94V231.49z" class="st0"/>
		</g>
		<g>
			<path d="M345.4,231.86h-5.91l-4.5-10.89h-17.5l-4.44,10.89h-5.91l16.37-39.61h5.53L345.4,231.86z M332.77,215.77&#10;&#9;&#9;&#9;&#9;l-6.5-15.93l-6.5,15.93H332.77z" class="st0"/>
			<path d="M345.96,232.24h-6.72l-4.5-10.89h-17l-4.44,10.89h-6.72l16.68-40.37h6.03L345.96,232.24z M339.74,231.49&#10;&#9;&#9;&#9;&#9;h5.09l-16.06-38.86h-5.02l-16.06,38.86h5.09l4.44-10.89h18.01L339.74,231.49z M333.33,216.14H319.2l7.06-17.3L333.33,216.14z&#10;&#9;&#9;&#9;&#9; M320.32,215.39h11.89l-5.94-14.56L320.32,215.39z" class="st0"/>
		</g>
		<g>
			<path d="M356.23,231.86h-5.69v-39.61h5.69V231.86z" class="st0"/>
			<path d="M356.61,232.24h-6.44v-40.37h6.44V232.24z M350.92,231.49h4.94v-38.86h-4.94V231.49z" class="st0"/>
		</g>
	</g>
	<g>
		<polygon points="90.57,234.7 90.57,206.04 99.6,197.02 99.6,243.72" class="st0"/>
		<polygon points="117.85,214.52 101.4,230.96 101.4,243.72 117.85,227.28" class="st0"/>
		
			<rect height="9.03" width="9.03" class="st0" transform="matrix(0.7071 -0.7071 0.7071 0.7071 -113.495 151.4212)" y="208.2" x="121.52"/>
		<polygon points="82.63,211.43 91.47,202.59 99.82,194.24 99.82,181.47 76.25,205.05" class="st0"/>
		<polygon points="88.77,220.13 81.35,212.71 74.97,206.33 68.59,212.71 88.77,232.89" class="st0"/>
	</g>
</g>
<g class="st1" id="Layer_2">
	<circle r="212.6" cy="212.6" cx="212.6" class="st2"/>
</g>
</svg>